# xmcd
#
# Track frame offsets:
#	150
#	20846
#	37857
#	56609
#	73500
#	92527
#	110565
#	127372
#	144547
#	163913
#	179455
#	193493
#	207929
#	222578
#	241809
#	265943
#	285198
#	304700
#
# Disc length: 4238 seconds
# Revision: 0
# Processed by: cddbd v1.5.2PL0 Copyright (c) Steve Scherf et al.
# Submitted via: dBpowerAMP V12.0
#
DISCID=17108c12
DTITLE=Wallis Bird - Bird Songs ～The Best Of Wallis Bird～
DYEAR=2015
DGENRE=
TTITLE0=To My Bones
TTITLE1=Hardly Hardly
TTITLE2=In Dictum
TTITLE3=Ghosts Of Memories
TTITLE4=Moodsets
TTITLE5=LaLaLand
TTITLE6=Blossoms In The Street
TTITLE7=Feathered Pocket
TTITLE8=Counting To Sleep
TTITLE9=I Am So Tired Of That Line
TTITLE10=Encore
TTITLE11=I Can Be Your Man
TTITLE12=Daze
TTITLE13=An Idea About Mary
TTITLE14=All For You
TTITLE15=The Circle
TTITLE16=You Are Mine
TTITLE17=Just Can't Get Enough
EXTD=
EXTT0=
EXTT1=
EXTT2=
EXTT3=
EXTT4=
EXTT5=
EXTT6=
EXTT7=
EXTT8=
EXTT9=
EXTT10=
EXTT11=
EXTT12=
EXTT13=
EXTT14=
EXTT15=
EXTT16=
EXTT17=
PLAYORDER=
